<?xml version="1.0" encoding="iso-8859-1"?>
<!-- Generator: Adobe Illustrator 17.1.0, SVG Export Plug-In . SVG Version: 6.00 Build 0)  -->
<!DOCTYPE svg PUBLIC "-//W3C//DTD SVG 1.1//EN" "http://www.w3.org/Graphics/SVG/1.1/DTD/svg11.dtd">
<svg version="1.1" id="Capa_1" xmlns="http://www.w3.org/2000/svg" xmlns:xlink="http://www.w3.org/1999/xlink" x="0px" y="0px"
	 viewBox="0 0 222.643 222.643" style="enable-background:new 0 0 222.643 222.643;" xml:space="preserve">
<g>
	<path style="fill:#000002;" d="M205.142,0H17.5C7.851,0,0,7.851,0,17.5v187.643c0,9.65,7.851,17.5,17.5,17.5h187.642
		c9.649,0,17.5-7.85,17.5-17.5V17.5C222.642,7.851,214.791,0,205.142,0z M207.642,205.143c0,1.355-1.145,2.5-2.5,2.5H17.5
		c-1.355,0-2.5-1.145-2.5-2.5V17.5c0-1.355,1.145-2.5,2.5-2.5h187.642c1.355,0,2.5,1.145,2.5,2.5V205.143z"/>
	<path style="fill:#000002;" d="M111.321,45.321c-36.393,0-66,29.608-66,66c0,36.393,29.607,66,66,66
		c10.674,0,21.279-2.609,30.67-7.545c3.666-1.927,5.076-6.462,3.149-10.128c-1.927-3.668-6.463-5.076-10.128-3.149
		c-7.35,3.863-15.32,5.822-23.69,5.822c-28.122,0-51-22.879-51-51c0-28.121,22.878-51,51-51s51,22.879,51,51
		c0,7.981-4.079,14.388-10.91,17.138c-4.837,1.947-10.09,1.67-14.507-0.544c1.672-3.259,2.883-6.854,3.518-10.697
		c0.378-2.289,0.53-4.579,0.474-6.842l0.014-27.478c0.002-4.143-3.354-7.502-7.496-7.504c-0.001,0-0.002,0-0.004,0
		c-4.14,0-7.498,3.355-7.5,7.496v0.179c-3.245-2.026-6.857-3.41-10.715-4.047c-1.566-0.259-3.162-0.39-4.743-0.39
		c-15.486,0-28.701,11.966-31.422,28.452c-3.015,18.268,8.302,35.403,25.228,38.198c1.565,0.258,3.16,0.389,4.74,0.389
		c6.682,0,12.939-2.231,18.115-6.089c8.75,5.673,19.833,6.842,29.9,2.791c12.527-5.043,20.309-16.941,20.309-31.053
		C177.321,74.929,147.714,45.321,111.321,45.321z M106.701,130.483c-8.766-1.447-14.54-10.848-12.871-20.955
		c1.496-9.063,8.642-15.896,16.623-15.896c0.765,0,1.538,0.063,2.299,0.189c4.105,0.677,7.708,3.133,10.145,6.916
		c1.895,2.941,2.911,6.401,2.999,10.018v0.739c-0.012,1.085-0.092,2.18-0.273,3.279c-1.496,9.063-8.643,15.897-16.624,15.897
		C108.233,130.672,107.46,130.608,106.701,130.483z"/>
</g>
<g>
</g>
<g>
</g>
<g>
</g>
<g>
</g>
<g>
</g>
<g>
</g>
<g>
</g>
<g>
</g>
<g>
</g>
<g>
</g>
<g>
</g>
<g>
</g>
<g>
</g>
<g>
</g>
<g>
</g>
</svg>
